<svg xmlns="http://www.w3.org/2000/svg" fill="none" viewBox="0 0 3000 3000"><g clip-path="url(#a)" fill="#000000" class="color000 svgShape"><path fill="#f1f1f1" fill-rule="evenodd" d="M545.791 879.883C545.791 863.278 559.252 849.816 575.858 849.816H869.01C885.615 849.816 899.077 863.278 899.077 879.883V2608.73C899.077 2625.33 885.615 2638.8 869.01 2638.8H575.858C559.252 2638.8 545.791 2625.33 545.791 2608.73V879.883ZM575.858 864.85C567.555 864.85 560.824 871.581 560.824 879.883V2608.73C560.824 2617.03 567.555 2623.76 575.858 2623.76H869.01C877.313 2623.76 884.043 2617.03 884.043 2608.73V879.883C884.043 871.581 877.313 864.85 869.01 864.85H575.858Z" clip-rule="evenodd" class="colorF1F1F1 svgShape"/><path fill="#e5e5e5" d="M2131.82 879.883C2131.82 867.429 2141.92 857.333 2154.37 857.333H2575.31C2587.76 857.333 2597.86 867.429 2597.86 879.883V1413.31C2597.86 1425.77 2587.76 1435.86 2575.31 1435.86H2154.37C2141.92 1435.86 2131.82 1425.77 2131.82 1413.31V879.883Z" class="colorE5E5E5 svgShape"/><path fill="#ffffff" d="M2204.14 952.194C2204.14 939.74 2214.23 929.644 2226.69 929.644H2502.99C2515.45 929.644 2525.54 939.74 2525.54 952.194V1340.99C2525.54 1353.44 2515.45 1363.54 2502.99 1363.54H2226.69C2214.23 1363.54 2204.14 1353.44 2204.14 1340.99V952.194Z" class="colorfff svgShape"/><path fill="#f1f1f1" d="M2465.51 1106.42L2348.77 1205.31V1363.54H2502.99C2515.45 1363.54 2525.54 1353.45 2525.54 1340.99V1152.57L2465.51 1106.42Z" class="colorF1F1F1 svgShape"/><path fill="#e5e5e5" d="M2321.32 1098.38L2204.14 1200.37V1340.99C2204.14 1353.44 2214.23 1363.54 2226.69 1363.54H2502.99C2515.45 1363.54 2525.54 1353.44 2525.54 1340.99V1271.75L2321.32 1098.38Z" class="colorE5E5E5 svgShape"/><path fill="#f1f1f1" d="M2429.12 1046.16C2429.12 1066.13 2412.93 1082.32 2392.96 1082.32C2372.99 1082.32 2356.8 1066.13 2356.8 1046.16C2356.8 1026.19 2372.99 1010 2392.96 1010C2412.93 1010 2429.12 1026.19 2429.12 1046.16Z" class="colorF1F1F1 svgShape"/><path fill="#d05244" fill-rule="evenodd" d="M624.261 1876.25C779.981 2158.98 834.042 2483.75 842.713 2627.97L857.719 2627.06C848.959 2481.37 794.536 2154.24 637.429 1868.99L624.261 1876.25Z" clip-rule="evenodd" class="colorD05244 svgShape"/><path fill="#f15846" d="M616.68 1778.12C639.321 1819.48 638.588 1854.16 633.149 1876.09 543.915 1822.34 546.943 1754.8 554.925 1715.36 574.347 1723.29 593.472 1735.73 616.68 1778.12zM604.669 1968.3C634.299 1979.65 650.731 1991.29 686.022 1985.92 626.195 1908.21 558.231 1898.68 531.469 1902.28 535.855 1920.19 550.803 1947.69 604.669 1968.3zM682.002 1976.09C707.631 1963.25 751.79 1910.31 723.399 1801.23 701.813 1813.88 663.313 1866.57 682.002 1976.09zM741.712 2126.36C713.576 2141.69 637.947 2152.22 560.524 2071.67 584.034 2059.4 653.186 2053.17 741.712 2126.36zM737.693 2116.53C773.33 2103.72 838.332 2043.78 813.238 1906.52 781.792 1938.21 722.658 2024.57 737.693 2116.53zM781.806 2269.65C755.959 2293.46 676.158 2310.76 563.72 2189.47 604.923 2183.79 706.224 2191.87 781.806 2269.65zM823.548 2449.33C791.552 2468.89 702.901 2484.39 604.26 2389.93 642.99 2371.74 741.068 2358.14 823.548 2449.33z" class="colorF15846 svgShape"/><path fill="#e9b11d" fill-rule="evenodd" d="M419.193 2094.21C602.438 2255.87 747.075 2478.41 831.266 2634.84L844.504 2627.72C759.906 2470.53 614.267 2246.26 429.138 2082.94L419.193 2094.21Z" clip-rule="evenodd" class="colorE9B11D svgShape"/><path fill="#fac22f" d="M370.999 1989.21C410.719 2016.74 425.22 2068.58 427.505 2091.06 306.207 2075.42 264.272 1991.88 258.466 1952.06 279.427 1952.97 331.279 1961.68 370.999 1989.21zM397.031 2208.57C464.673 2215.37 503.435 2190.08 514.361 2176.59 385.975 2128.66 305.926 2141.52 281.95 2153.94 292.126 2169.32 329.39 2201.77 397.031 2208.57zM507.26 2168.7C527.048 2147.96 550.735 2083.21 487.175 1990.12 471.13 2009.32 452.684 2071.92 507.26 2168.7zM614.206 2289.98C592.9 2313.91 525.269 2349.36 425.192 2299.68 443.18 2280.2 506.165 2250.98 614.206 2289.98zM607.104 2282.08C636.321 2257.99 677.262 2179.62 607.294 2058.9 588.395 2099.34 561.899 2200.6 607.104 2282.08zM700.332 2411.31C684.044 2442.45 614.77 2485.68 467.981 2409.48 504.845 2390.22 602.926 2363.63 700.332 2411.31zM699.483 2405.49C723.297 2385.15 762.441 2318.95 728.502 2216.78 707.885 2238.63 673.216 2306.96 699.483 2405.49zM800.297 2566.34C776.785 2595.55 698.577 2640.08 573.832 2584.48 604.141 2554.27 691.868 2508.36 800.297 2566.34z" class="colorFAC22F svgShape"/><path fill="#e5e5e5" d="M786.326 669.416C786.326 611.297 833.441 564.182 891.56 564.182H1801.08C1859.2 564.182 1906.32 611.297 1906.32 669.416V2526.05C1906.32 2584.16 1859.2 2631.28 1801.08 2631.28H891.56C833.441 2631.28 786.326 2584.16 786.326 2526.05V669.416Z" class="colorE5E5E5 svgShape"/><path fill="#3e3d3d" fill-rule="evenodd" d="M778.809 669.415C778.809 607.144 829.289 556.664 891.559 556.664H1801.08C1863.35 556.664 1913.83 607.144 1913.83 669.415V2526.04C1913.83 2588.32 1863.35 2638.8 1801.08 2638.8H891.559C829.289 2638.8 778.809 2588.32 778.809 2526.04V669.415ZM891.559 571.698C837.592 571.698 793.842 615.447 793.842 669.415V2526.04C793.842 2580.01 837.592 2623.76 891.559 2623.76H1801.08C1855.05 2623.76 1898.8 2580.01 1898.8 2526.04V669.415C1898.8 615.447 1855.05 571.698 1801.08 571.698H891.559Z" clip-rule="evenodd" class="color3E3D3D svgShape"/><path fill="#ffffff" d="M823.908 676.933C823.908 635.419 857.562 601.766 899.075 601.766H1793.57C1835.08 601.766 1868.73 635.419 1868.73 676.933V2465.91C1868.73 2507.43 1835.08 2541.08 1793.57 2541.08H899.075C857.562 2541.08 823.908 2507.43 823.908 2465.91V676.933Z" class="colorfff svgShape"/><path fill="#e5e5e5" d="M1124.58 601.766H1590.61L1576.4 641.887C1568.96 662.893 1549.09 676.933 1526.8 676.933H1188.39C1166.1 676.933 1146.23 662.893 1138.79 641.887L1124.58 601.766Z" class="colorE5E5E5 svgShape"/><path fill="#f1f1f1" fill-rule="evenodd" d="M1218.68 1142.57C1244.15 1096.21 1293.45 1064.79 1350.08 1064.79C1406.71 1064.79 1456.01 1096.21 1481.48 1142.57C1481.4 1142.66 1481.32 1142.76 1481.24 1142.85C1449.53 1179.74 1402.53 1203.1 1350.08 1203.1C1297.49 1203.1 1250.39 1179.62 1218.68 1142.57Z" clip-rule="evenodd" class="colorF1F1F1 svgShape"/><path fill="#f1f1f1" d="M1417 971.664C1417 987.625 1410.92 1002.22 1400.85 1013.45C1388.58 1027.13 1370.38 1035.8 1350.08 1035.8C1313.12 1035.8 1283.16 1007.08 1283.16 971.664C1283.16 936.243 1313.12 907.529 1350.08 907.529C1387.04 907.529 1417 936.243 1417 971.664Z" class="colorF1F1F1 svgShape"/><path fill="#f1f1f1" fill-rule="evenodd" d="M1350.08 864.85C1258.75 864.85 1184.71 938.888 1184.71 1030.22 1184.71 1121.55 1258.75 1195.59 1350.08 1195.59 1400.25 1195.59 1445.2 1173.25 1475.54 1137.96 1500.42 1109.01 1515.45 1071.38 1515.45 1030.22 1515.45 938.888 1441.41 864.85 1350.08 864.85zM1169.68 1030.22C1169.68 930.585 1250.45 849.816 1350.08 849.816 1449.71 849.816 1530.48 930.585 1530.48 1030.22 1530.48 1075.11 1514.07 1116.19 1486.94 1147.75 1453.87 1186.23 1404.82 1210.62 1350.08 1210.62 1250.45 1210.62 1169.68 1129.85 1169.68 1030.22zM1718.4 1398.54H981.76V1383.5H1718.4V1398.54zM1718.4 2308.06H981.76V2293.03H1718.4V2308.06zM1485.38 2413.29H981.76V2398.26H1485.38V2413.29z" clip-rule="evenodd" class="colorF1F1F1 svgShape"/><path fill="#53b3cc" fill-rule="evenodd" d="M1177.2 1481.22H974.244V1451.15H1177.2V1481.22zM1177.2 1781.89H974.244V1751.82H1177.2V1781.89z" clip-rule="evenodd" class="color53B3CC svgShape"/><path fill="#f1f1f1" d="M966.727 1556.39C966.727 1543.93 976.823 1533.84 989.277 1533.84H1718.4C1730.85 1533.84 1740.95 1543.93 1740.95 1556.39V1639.07C1740.95 1651.53 1730.85 1661.62 1718.4 1661.62H989.277C976.823 1661.62 966.727 1651.53 966.727 1639.07V1556.39zM966.727 1849.54C966.727 1837.09 976.823 1826.99 989.277 1826.99H1718.4C1730.85 1826.99 1740.95 1837.09 1740.95 1849.54V1932.22C1740.95 1944.68 1730.85 1954.77 1718.4 1954.77H989.277C976.823 1954.77 966.727 1944.68 966.727 1932.22V1849.54z" class="colorF1F1F1 svgShape"/><path fill="#53b3cc" d="M1154.64 2090.08C1154.64 2077.62 1164.74 2067.52 1177.19 2067.52H1530.48C1542.93 2067.52 1553.03 2077.62 1553.03 2090.08V2172.76C1553.03 2185.21 1542.93 2195.31 1530.48 2195.31H1177.19C1164.74 2195.31 1154.64 2185.21 1154.64 2172.76V2090.08Z" class="color53B3CC svgShape"/><path fill="#3e3d3d" d="M1914.05 1582.95C1911.05 1619.03 1935.35 1650.6 1947.88 1661.88H2038.08L2222.24 1556.64C2231.01 1556.64 2255.31 1549.88 2282.37 1522.82C2309.43 1495.76 2293.65 1441.39 2282.37 1417.59C2298.66 1392.53 2317.7 1330.39 2263.58 1282.28C2209.46 1234.17 2153.33 1262.24 2132.04 1282.28C2123.27 1272.26 2095.96 1254.47 2056.87 1263.49C2017.78 1272.51 2005.5 1309.84 2004.25 1327.38C1991.72 1309.85 1954.64 1288.3 1906.54 1342.42C1858.43 1396.54 1886.49 1455.17 1906.54 1477.72C1864.44 1519.81 1894.01 1565.41 1914.05 1582.95Z" class="color3E3D3D svgShape"/><path fill="#efcb96" d="M1947.88 1658.12L1921.57 1782.15C1915.31 1808.46 1902.03 1864.83 1899.02 1879.86C1895.26 1898.66 1970.43 1902.41 1992.98 1898.66C2015.53 1894.9 2139.55 1883.62 2147.07 1879.86C2153.08 1876.86 2157.09 1820.98 2158.35 1793.42L2139.55 1710.74C2214.72 1671.65 2223.49 1566.67 2218.48 1519.06C2161.35 1504.03 2164.61 1452.66 2173.38 1428.86C2162.1 1427.61 2134.29 1425.86 2113.25 1428.86C2086.94 1432.62 2090.7 1447.65 2064.39 1458.93C2038.08 1470.2 2030.56 1432.62 2026.8 1440.14C2023.04 1447.65 2004.25 1594.23 1992.98 1582.96C1983.96 1573.94 1981.7 1536.6 1981.7 1519.06C1970.43 1505.28 1944.87 1485.99 1932.84 1519.06C1920.82 1552.13 1942.87 1587.96 1955.39 1601.75L1947.88 1658.12Z" class="colorEFCB96 svgShape"/><path fill="#53b3cc" fill-rule="evenodd" d="M1902.77 1729.53C1905.28 1765.86 1937.35 1838.52 2045.59 1838.52C2153.83 1838.52 2180.89 1765.86 2180.89 1729.53C2266.08 1715.75 2466.53 1746.06 2586.8 1977.58C2678.01 2153.17 2715.9 2275 2728.34 2341.1C2732.95 2351.34 2736 2360.56 2737.13 2368.45C2748.41 2447.38 2688.27 2545.09 2609.35 2530.06C2583.9 2525.21 2554.35 2482.77 2525.75 2425.95L2511.63 2428.58L2526.66 2627.78H1650.96C1635.61 2544.94 1622.6 2438.07 1619.5 2327.11C1526.94 1977.58 1666.3 1744.58 1902.77 1729.53Z" clip-rule="evenodd" class="color53B3CC svgShape"/><path fill="#e5e5e5" d="M2274.85 1883.62L2289.89 2056.51H2323.71L2451.49 1857.31L2440.22 1849.8L2274.85 1883.62Z" class="colorE5E5E5 svgShape"/><path fill="#f1f1f1" d="M2289.89 1894.9L2304.92 2094.09H2406.4L2466.53 1996.37L2451.5 1857.31L2289.89 1894.9Z" class="colorF1F1F1 svgShape"/><path fill="#46a4bc" d="M2237.27 2090.33C2162.1 2114.39 1932.84 2112.88 1827.61 2109.12C1836.63 2130.17 1861.43 2185.54 1872.71 2210.6C1947.88 2210.6 2142.06 2185.54 2229.75 2173.02L2237.27 2090.33Z" class="color46A4BC svgShape"/><path fill="#efcb96" d="M2229.75 2173.02L2173.38 2214.36L2241.03 2308.32C2241.03 2304.56 2248.55 2290.28 2278.61 2263.22C2316.2 2229.39 2316.2 2255.7 2387.61 2184.29C2459.01 2112.88 2413.91 2026.44 2387.61 2041.47C2366.56 2053.5 2308.68 2052.75 2289.89 2056.51L2286.13 2000.13L2278.61 2003.89C2239.53 2033.96 2229.75 2129.17 2229.75 2173.02Z" class="colorEFCB96 svgShape"/><path fill="#efcb96" d="M2443.98 2135.43L2451.5 2146.71L2477.81 2139.19L2504.11 2124.16C2501.61 2117.89 2528.92 2113.63 2522.91 2101.61C2515.39 2086.57 2534.18 2033.96 2530.42 2000.13C2526.66 1966.3 2481.56 1940 2459.01 1943.75C2436.46 1947.51 2432.71 1973.82 2417.67 2041.47C2405.65 2095.59 2430.2 2126.66 2443.98 2135.43Z" class="colorEFCB96 svgShape"/><path fill="#46a4bc" fill-rule="evenodd" d="M1862.21 2208.38C1840.99 2165.27 1823 2114.68 1812.9 2081.23L1827.29 2076.88C1837.23 2109.83 1854.95 2159.59 1875.7 2201.74 1886.08 2222.83 1897.08 2241.72 1908.08 2255.6 1919.38 2269.86 1929.44 2277.23 1937.6 2278.32 1947.19 2279.6 1962.4 2277.17 1981.66 2271.57 2000.62 2266.06 2022.52 2257.77 2045 2248.22 2089.96 2229.11 2136.7 2205.18 2165.98 2188.99L2172.08 2185.62 2265.25 2327.4 2262.07 2331.63C2225.42 2380.28 2162.15 2450.2 2091.18 2502.02 2020.73 2553.46 1940.16 2588.89 1870.14 2563.43 1802.51 2538.84 1745.18 2492.87 1701.1 2445.75 1657.01 2398.61 1625.77 2349.91 1610.42 2319.19L1623.86 2312.47C1638.57 2341.89 1668.98 2389.4 1712.08 2435.48 1755.19 2481.56 1810.62 2525.79 1875.28 2549.3 1937.56 2571.95 2012.32 2540.99 2082.32 2489.88 2149.77 2440.63 2210.43 2374.37 2246.86 2326.79L2167.15 2205.5C2137.41 2221.7 2093.42 2243.98 2050.88 2262.05 2028.11 2271.73 2005.61 2280.26 1985.86 2286.01 1966.4 2291.67 1948.56 2294.94 1935.61 2293.22 1921.21 2291.3 1907.94 2279.63 1896.3 2264.94 1884.35 2249.86 1872.8 2229.9 1862.21 2208.38zM2527.38 2076.5L2535.79 2085.07C2568.49 2118.4 2618.1 2172.35 2660.71 2225.94 2682 2252.73 2701.65 2279.55 2716.58 2303.75 2731.36 2327.69 2742.08 2349.95 2744.57 2367.39L2729.69 2369.52C2727.67 2355.39 2718.44 2335.4 2703.79 2311.64 2689.3 2288.15 2670.05 2261.84 2648.94 2235.29 2609.9 2186.2 2564.85 2136.7 2532.63 2103.38 2522.19 2121.59 2503.59 2134.53 2484.78 2143.45 2466.18 2152.27 2446.33 2157.64 2431.15 2160.34 2452.77 2230.65 2490.18 2337.01 2529.64 2416.91L2516.16 2423.57C2474.58 2339.4 2435.49 2226.77 2414.23 2156.4L2411.66 2147.87 2420.5 2146.77C2434.89 2144.97 2457.58 2139.7 2478.34 2129.86 2499.31 2119.93 2516.83 2106.04 2523.34 2087.81L2527.38 2076.5z" clip-rule="evenodd" class="color46A4BC svgShape"/><path fill="#c4c4c4" d="M1049.41 1601.49C1049.41 1609.79 1042.68 1616.52 1034.38 1616.52 1026.07 1616.52 1019.34 1609.79 1019.34 1601.49 1019.34 1593.19 1026.07 1586.46 1034.38 1586.46 1042.68 1586.46 1049.41 1593.19 1049.41 1601.49zM1132.09 1601.49C1132.09 1609.79 1125.36 1616.52 1117.06 1616.52 1108.76 1616.52 1102.03 1609.79 1102.03 1601.49 1102.03 1593.19 1108.76 1586.45 1117.06 1586.45 1125.36 1586.45 1132.09 1593.19 1132.09 1601.49zM1214.78 1601.49C1214.78 1609.79 1208.05 1616.52 1199.74 1616.52 1191.44 1616.52 1184.71 1609.79 1184.71 1601.49 1184.71 1593.19 1191.44 1586.45 1199.74 1586.45 1208.05 1586.45 1214.78 1593.19 1214.78 1601.49zM1297.46 1601.49C1297.46 1609.79 1290.73 1616.52 1282.43 1616.52 1274.13 1616.52 1267.4 1609.79 1267.4 1601.49 1267.4 1593.19 1274.13 1586.45 1282.43 1586.45 1290.73 1586.45 1297.46 1593.19 1297.46 1601.49zM1380.15 1601.49C1380.15 1609.79 1373.42 1616.52 1365.11 1616.52 1356.81 1616.52 1350.08 1609.79 1350.08 1601.49 1350.08 1593.19 1356.81 1586.45 1365.11 1586.45 1373.42 1586.45 1380.15 1593.19 1380.15 1601.49zM1462.83 1601.49C1462.83 1609.79 1456.1 1616.52 1447.8 1616.52 1439.49 1616.52 1432.76 1609.79 1432.76 1601.49 1432.76 1593.19 1439.49 1586.45 1447.8 1586.45 1456.1 1586.45 1462.83 1593.19 1462.83 1601.49zM1545.51 1601.49C1545.51 1609.79 1538.78 1616.52 1530.48 1616.52 1522.18 1616.52 1515.45 1609.79 1515.45 1601.49 1515.45 1593.19 1522.18 1586.45 1530.48 1586.45 1538.78 1586.45 1545.51 1593.19 1545.51 1601.49zM1049.41 1894.64C1049.41 1902.95 1042.68 1909.68 1034.38 1909.68 1026.07 1909.68 1019.34 1902.95 1019.34 1894.64 1019.34 1886.34 1026.07 1879.61 1034.38 1879.61 1042.68 1879.61 1049.41 1886.34 1049.41 1894.64zM1132.09 1894.64C1132.09 1902.94 1125.36 1909.67 1117.06 1909.67 1108.76 1909.67 1102.03 1902.94 1102.03 1894.64 1102.03 1886.34 1108.76 1879.61 1117.06 1879.61 1125.36 1879.61 1132.09 1886.34 1132.09 1894.64zM1214.78 1894.64C1214.78 1902.94 1208.05 1909.67 1199.74 1909.67 1191.44 1909.67 1184.71 1902.94 1184.71 1894.64 1184.71 1886.34 1191.44 1879.61 1199.74 1879.61 1208.05 1879.61 1214.78 1886.34 1214.78 1894.64zM1297.46 1894.64C1297.46 1902.94 1290.73 1909.67 1282.43 1909.67 1274.13 1909.67 1267.4 1902.94 1267.4 1894.64 1267.4 1886.34 1274.13 1879.61 1282.43 1879.61 1290.73 1879.61 1297.46 1886.34 1297.46 1894.64zM1380.15 1894.64C1380.15 1902.94 1373.42 1909.67 1365.11 1909.67 1356.81 1909.67 1350.08 1902.94 1350.08 1894.64 1350.08 1886.34 1356.81 1879.61 1365.11 1879.61 1373.42 1879.61 1380.15 1886.34 1380.15 1894.64zM1462.83 1894.64C1462.83 1902.94 1456.1 1909.67 1447.8 1909.67 1439.49 1909.67 1432.76 1902.94 1432.76 1894.64 1432.76 1886.34 1439.49 1879.61 1447.8 1879.61 1456.1 1879.61 1462.83 1886.34 1462.83 1894.64zM1545.51 1894.64C1545.51 1902.94 1538.78 1909.67 1530.48 1909.67 1522.18 1909.67 1515.45 1902.94 1515.45 1894.64 1515.45 1886.34 1522.18 1879.61 1530.48 1879.61 1538.78 1879.61 1545.51 1886.34 1545.51 1894.64z" class="colorC4C4C4 svgShape"/><path fill="#3e3d3d" fill-rule="evenodd" d="M1786.05 729.549H1703.37V714.516H1786.05V729.549zM1786.05 774.649H1703.37V759.616H1786.05V774.649zM1786.05 819.75H1703.37V804.716H1786.05V819.75zM946.378 716.718L957.009 727.348 917.223 767.133 957.009 806.918 946.378 817.549 895.963 767.133 946.378 716.718z" clip-rule="evenodd" class="color3E3D3D svgShape"/><path fill="#3e3d3d" d="M1246.84 1313.84C1246.84 1311.58 1246.04 1309.82 1244.42 1308.56 1242.83 1307.29 1240.03 1305.99 1236.01 1304.64 1231.99 1303.29 1228.7 1301.98 1226.14 1300.72 1217.83 1296.64 1213.68 1291.03 1213.68 1283.89 1213.68 1280.34 1214.71 1277.21 1216.76 1274.51 1218.85 1271.78 1221.78 1269.67 1225.57 1268.17 1229.36 1266.64 1233.62 1265.88 1238.34 1265.88 1242.95 1265.88 1247.08 1266.7 1250.72 1268.34 1254.39 1269.99 1257.24 1272.34 1259.26 1275.39 1261.29 1278.42 1262.3 1281.88 1262.3 1285.79H1246.89C1246.89 1283.17 1246.08 1281.15 1244.46 1279.71 1242.88 1278.27 1240.72 1277.55 1237.99 1277.55 1235.23 1277.55 1233.04 1278.17 1231.43 1279.4 1229.84 1280.6 1229.05 1282.14 1229.05 1284.02 1229.05 1285.67 1229.93 1287.17 1231.69 1288.52 1233.45 1289.84 1236.55 1291.22 1240.98 1292.66 1245.42 1294.07 1249.06 1295.59 1251.91 1297.24 1258.84 1301.23 1262.3 1306.74 1262.3 1313.75 1262.3 1319.36 1260.19 1323.77 1255.96 1326.97 1251.73 1330.17 1245.93 1331.77 1238.56 1331.77 1233.37 1331.77 1228.65 1330.84 1224.42 1328.99 1220.23 1327.11 1217.05 1324.56 1214.91 1321.33 1212.8 1318.07 1211.74 1314.33 1211.74 1310.1H1227.24C1227.24 1313.53 1228.12 1316.07 1229.89 1317.72 1231.68 1319.33 1234.57 1320.14 1238.56 1320.14 1241.12 1320.14 1243.13 1319.6 1244.6 1318.51 1246.09 1317.39 1246.84 1315.84 1246.84 1313.84zM1285.2 1330.89H1270.32V1283.23H1285.2V1330.89zM1269.44 1270.94C1269.44 1268.83 1270.2 1267.1 1271.73 1265.75 1273.25 1264.4 1275.24 1263.72 1277.67 1263.72 1280.11 1263.72 1282.09 1264.4 1283.62 1265.75 1285.15 1267.1 1285.91 1268.83 1285.91 1270.94 1285.91 1273.06 1285.15 1274.79 1283.62 1276.14 1282.09 1277.49 1280.11 1278.17 1277.67 1278.17 1275.24 1278.17 1273.25 1277.49 1271.73 1276.14 1270.2 1274.79 1269.44 1273.06 1269.44 1270.94zM1292.65 1306.71C1292.65 1301.89 1293.44 1297.63 1295.03 1293.93 1296.61 1290.23 1298.89 1287.39 1301.85 1285.39 1304.82 1283.36 1308.27 1282.35 1312.2 1282.35 1317.17 1282.35 1321.04 1284.02 1323.83 1287.37L1324.36 1283.23H1337.84V1329.08C1337.84 1333.28 1336.85 1336.92 1334.89 1340 1332.95 1343.12 1330.13 1345.49 1326.43 1347.14 1322.73 1348.81 1318.44 1349.65 1313.57 1349.65 1310.07 1349.65 1306.68 1348.99 1303.39 1347.67 1300.14 1346.35 1297.64 1344.63 1295.91 1342.51L1302.12 1333.79C1304.88 1337.05 1308.52 1338.68 1313.04 1338.68 1319.62 1338.68 1322.91 1335.31 1322.91 1328.55V1327.05C1320.06 1330.2 1316.46 1331.77 1312.11 1331.77 1306.3 1331.77 1301.6 1329.55 1298.02 1325.12 1294.44 1320.65 1292.65 1314.69 1292.65 1307.23V1306.71zM1307.53 1307.63C1307.53 1311.54 1308.27 1314.63 1309.74 1316.92 1311.2 1319.19 1313.26 1320.32 1315.9 1320.32 1319.1 1320.32 1321.44 1319.24 1322.91 1317.1V1297.06C1321.47 1294.89 1319.16 1293.8 1315.99 1293.8 1313.35 1293.8 1311.28 1294.99 1309.78 1297.37 1308.28 1299.72 1307.53 1303.14 1307.53 1307.63zM1359.9 1283.23L1360.39 1288.82C1363.67 1284.51 1368.21 1282.35 1374 1282.35 1378.96 1282.35 1382.66 1283.83 1385.09 1286.8 1387.56 1289.76 1388.84 1294.23 1388.93 1300.19V1330.89H1374.04V1300.8C1374.04 1298.4 1373.56 1296.64 1372.59 1295.52 1371.62 1294.37 1369.86 1293.8 1367.3 1293.8 1364.39 1293.8 1362.24 1294.95 1360.83 1297.24V1330.89H1345.98V1283.23H1359.9zM1435.3 1330.89H1420.42V1283.23H1435.3V1330.89zM1419.54 1270.94C1419.54 1268.83 1420.3 1267.1 1421.83 1265.75 1423.35 1264.4 1425.34 1263.72 1427.77 1263.72 1430.21 1263.72 1432.19 1264.4 1433.72 1265.75 1435.25 1267.1 1436.01 1268.83 1436.01 1270.94 1436.01 1273.06 1435.25 1274.79 1433.72 1276.14 1432.19 1277.49 1430.21 1278.17 1427.77 1278.17 1425.34 1278.17 1423.35 1277.49 1421.83 1276.14 1420.3 1274.79 1419.54 1273.06 1419.54 1270.94zM1458.12 1283.23L1458.6 1288.82C1461.89 1284.51 1466.43 1282.35 1472.21 1282.35 1477.17 1282.35 1480.87 1283.83 1483.31 1286.8 1485.78 1289.76 1487.05 1294.23 1487.14 1300.19V1330.89H1472.26V1300.8C1472.26 1298.4 1471.77 1296.64 1470.8 1295.52 1469.83 1294.37 1468.07 1293.8 1465.52 1293.8 1462.61 1293.8 1460.45 1294.95 1459.04 1297.24V1330.89H1444.2V1283.23H1458.12z" class="color3E3D3D svgShape"/><path fill="#3e3d3d" fill-rule="evenodd" d="M409.2 1071.2C409.2 1010.64 450.739 969.225 493.173 969.225C534.808 969.225 575.58 1009.09 577.102 1067.8H636.388C634.804 984.355 575.117 909.95 493.173 909.95C410.117 909.95 349.926 986.388 349.926 1071.2C349.926 1073.28 350 1154.36 350.249 1158.56C351.447 1178.7 356.168 1197.24 367.823 1211.56C380.118 1226.66 396.438 1232.64 411.232 1234.79C425.131 1236.81 440.203 1235.8 453.006 1234.8C455.235 1234.62 457.435 1234.44 459.615 1234.26L459.617 1234.26C470.994 1233.34 481.816 1232.46 493.173 1232.46C500.822 1232.46 508.227 1232.86 515.723 1233.4V1127.16H409.301C409.289 1122.89 409.278 1118.43 409.269 1113.96C409.223 1093.33 409.2 1072.71 409.2 1071.2Z" clip-rule="evenodd" class="color3E3D3D svgShape"/><path fill="#f15846" d="M320.289 1130.09C320.289 1117.63 330.385 1107.54 342.839 1107.54H643.508C655.962 1107.54 666.058 1117.63 666.058 1130.09V1361.6C666.058 1374.06 655.962 1384.15 643.508 1384.15H342.839C330.385 1384.15 320.289 1374.06 320.289 1361.6V1130.09Z" class="colorF15846 svgShape"/><path fill="#3e3d3d" fill-rule="evenodd" d="M517.75 1258.19C529.732 1250.23 537.629 1236.61 537.629 1221.14 537.629 1196.59 517.725 1176.68 493.173 1176.68 468.62 1176.68 448.717 1196.59 448.717 1221.14 448.717 1236.61 456.614 1250.23 468.596 1258.19 468.516 1259 468.475 1259.82 468.475 1260.65V1290.29C468.475 1303.93 479.533 1314.99 493.173 1314.99 506.813 1314.99 517.871 1303.93 517.871 1290.29V1260.65C517.871 1259.82 517.83 1259 517.75 1258.19zM-2.92969 2631.28C-2.92969 2627.13.435663 2623.76 4.58703 2623.76H2992.48C2996.63 2623.76 3000 2627.13 3000 2631.28 3000 2635.43 2996.63 2638.8 2992.48 2638.8H4.58703C.435663 2638.8-2.92969 2635.43-2.92969 2631.28z" clip-rule="evenodd" class="color3E3D3D svgShape"/></g><defs><clipPath id="a"><rect width="3000" height="3000" fill="#ffffff" class="colorfff svgShape"/></clipPath></defs></svg>